<svg xmlns="http://www.w3.org/2000/svg" viewBox="0 0 170.08 170.08"><title>icone_home copie</title><g id="Calque_2" data-name="Calque 2"><path d="M76.17,139.48l-15.55-.1a16.26,16.26,0,0,1-16.26-16.26V15.84C44.36,10.17,41.88,7,35.5,7s-8.87,3.19-8.87,8.86V152.77A4.34,4.34,0,0,0,31,157.11c17.58,0,82.69.12,83,.09C106.41,154.64,92.16,156.16,76.17,139.48Z"/><path d="M137.68,35.11c-6.39,0-8.87,3.19-8.87,8.86l-.18,82.73h-.17L87.26,30.89A19.52,19.52,0,0,0,69.32,19.08h0A10.54,10.54,0,0,0,58.78,29.62s-4,71-3.3,87.07,4.79,19.23,8.46,21.46c3,0,10.41-.05,11.62-.08-9-27.09,1-87.43,1-87.43h.35v.17L123.14,157.2H134a12.6,12.6,0,0,0,12.59-12.6V44C146.54,38.3,144.06,35.11,137.68,35.11Z"/></g></svg>